<svg width="232" height="52" viewBox="0 0 232 52" fill="none" xmlns="http://www.w3.org/2000/svg">
<g clip-path="url(#clip0_23_144)">
<path d="M21.1986 52.023C32.1712 52.023 40.1701 44.8484 42.1328 35.3271V50.9896H52.1833V31.4337C52.1833 30.5879 52.2491 29.5972 52.2656 28.6658C52.4335 22.7418 56.3424 19.1676 62.5334 19.0754C60.8299 21.7284 59.7332 24.7244 59.3217 27.8498C58.9101 30.9751 59.1937 34.1527 60.1523 37.1558C61.1109 40.159 62.7209 42.9137 64.8674 45.2235C67.0138 47.5332 69.6439 49.3411 72.57 50.518C75.496 51.695 78.6459 52.2121 81.7949 52.0324C84.9439 51.8527 88.0144 50.9807 90.7874 49.4785C93.5604 47.9764 95.9675 45.8811 97.837 43.3422C99.7065 40.8033 100.992 37.8833 101.603 34.7906V34.8137C101.603 45.1215 109.872 52.1251 119.836 52.1251C124.032 52.1251 127.74 50.3347 130.555 47.3891V50.9896H140.603V29.5117C140.596 29.1526 140.607 28.7934 140.636 28.4354C140.853 21.6129 144.864 18.6542 149.293 18.6542C153.637 18.6542 157.378 21.6162 157.546 28.3828C157.578 29.0213 157.578 29.3932 157.578 30.0284V50.9863H167.744V35.0144C169.625 45.3585 178.345 51.9704 188.748 51.9704C200.54 51.9704 207.189 44.4666 208.997 36.5613H199.117C198.261 39.3752 194.79 43.6668 188.734 43.6668C183.265 43.6668 178.635 39.9577 177.446 33.8724H210.047V50.9863H220.111V31.4337C220.111 30.5879 220.16 29.5972 220.193 28.6658C220.394 22.6365 224.389 19.0754 230.731 19.0754H231.871V9.47848H230.731C217.444 9.47848 210.35 16.9296 210.031 26.6319C208.118 16.1003 199.042 9.22177 188.708 9.22177C178.374 9.22177 169.585 16.0706 167.705 26.5068C167.705 17.239 160.44 9.22177 151.048 9.22177C146.906 9.22177 143.398 10.8213 140.563 13.5496V0.0559488H130.555V30.0942C130.555 31.0815 130.522 31.7167 130.42 33.1911C129.782 39.4213 125.589 42.5149 120.976 42.5149C116.263 42.5149 111.949 40.2901 111.798 33.2471C111.798 31.9866 111.765 31.5094 111.765 30.6142V19.4177H127.384V9.92278H111.768V0.0724055H101.603V26.5562C100.831 22.5532 98.9316 18.8537 96.1272 15.8935C93.3227 12.9332 89.7304 10.8354 85.7731 9.84713C81.8157 8.85882 77.6583 9.02114 73.7902 10.315C69.9221 11.6088 66.5044 13.9803 63.9396 17.1501V9.47848H62.8166C49.7332 9.47848 42.6531 16.696 42.1657 26.1284C40.2294 16.6071 32.3259 9.47848 22.338 9.47848C17.1053 9.47848 13.0285 11.3742 9.80781 14.5468V0H0.0273438V25.3648C0.0273438 27.1914 0.0602742 28.9653 0.0932051 30.6306C0.228222 42.357 8.46423 52.023 21.1953 52.023M188.748 17.68C195.123 17.68 198.88 22.7878 199.635 25.9539H177.88C179.527 20.8461 183.808 17.68 188.748 17.68ZM80.5631 18.9339C82.1062 18.9144 83.6376 19.2041 85.0669 19.7859C86.4962 20.3678 87.7943 21.2299 88.8847 22.3214C89.975 23.413 90.8354 24.7118 91.4152 26.1412C91.9949 27.5706 92.2822 29.1016 92.2601 30.6438C92.2601 37.2261 87.1954 42.3635 80.5499 42.3635C79.0089 42.3768 77.4807 42.0824 76.055 41.4974C74.6294 40.9124 73.3351 40.0487 72.2479 38.9571C71.1608 37.8654 70.3028 36.5677 69.7244 35.1401C69.1459 33.7125 68.8585 32.1838 68.8792 30.6438C68.8792 24.124 73.9407 18.9339 80.5664 18.9339H80.5631ZM21.1953 18.9339C27.821 18.9339 32.8693 24.0944 32.8693 30.6438C32.8693 37.1932 27.7848 42.3635 21.1953 42.3635C18.0861 42.3635 15.1042 41.1291 12.9056 38.9319C10.7071 36.7346 9.47192 33.7545 9.47192 30.6471C9.47192 27.5397 10.7071 24.5596 12.9056 22.3623C15.1042 20.165 18.0861 18.9306 21.1953 18.9306V18.9339Z" fill="white"/>
</g>
<defs>
<clipPath id="clip0_23_144">
<rect width="231.833" height="52" fill="white" transform="translate(0.0273438)"/>
</clipPath>
</defs>
</svg>
