<svg width="251" height="52" viewBox="0 0 251 52" fill="none" xmlns="http://www.w3.org/2000/svg">
<g clip-path="url(#clip0_23_140)">
<path fill-rule="evenodd" clip-rule="evenodd" d="M110.432 51.3111L101.612 18.2497C100.195 12.9071 95.3537 8.98022 89.5891 8.98022C88.0942 8.98022 86.6615 9.2484 85.3323 9.73452L66.3447 16.6721H85.8736L89.2106 29.1954C85.9736 26.3956 81.7575 24.6924 77.1413 24.6924C67.974 24.6924 60.5522 30.8652 60.5522 38.4794C60.5522 46.0942 67.974 52.2758 77.1413 52.2758C83.7408 52.2758 89.5769 49.0296 93.1767 44.0417L95.113 51.3106L110.432 51.3111ZM83.5286 46.1754C79.3002 46.1754 75.8719 42.7341 75.8719 38.4788C75.8719 34.23 79.2996 30.7852 83.5286 30.7852C87.757 30.7852 91.1882 34.2294 91.1882 38.4788C91.1882 42.7341 87.757 46.1754 83.5286 46.1754Z" fill="white"/>
<path fill-rule="evenodd" clip-rule="evenodd" d="M40.7619 47.4649C47.9086 47.4649 54.2233 43.8822 58.0359 38.414L58.8552 41.5001C58.5831 41.8489 58.2952 42.1854 57.9981 42.5185C52.5719 48.568 43.0197 52.5849 32.1482 52.5849C21.2749 52.5849 11.7204 48.5715 6.29767 42.5185C2.29316 38.0465 -0.0908203 32.4176 -0.0908203 26.2945C-0.0908203 20.176 2.29316 14.5512 6.29767 10.0822C11.7064 4.03672 21.4057 0 32.461 0C40.2113 0 47.2202 1.87609 52.2591 4.90728C56.2188 7.29753 59.493 10.4467 61.7764 14.1025L40.7619 26.2951L51.9242 8.34513C48.6901 6.30836 44.8618 5.13339 40.7619 5.13339C29.1287 5.13339 19.7009 14.6027 19.7009 26.2951C19.7009 37.9869 29.1287 47.4649 40.7619 47.4649ZM203.833 30.7863C203.833 42.8264 194.121 52.5849 182.143 52.5849C170.155 52.5849 160.437 42.8264 160.437 30.7863C160.437 18.7492 170.154 8.98665 182.143 8.98665C194.121 8.98665 203.833 18.7498 203.833 30.7863ZM105.294 16.6727L120.178 9.70355C121.167 9.24315 122.264 8.98607 123.415 8.98607C127.218 8.98607 130.371 11.766 130.975 15.4124L143.166 9.70355C144.142 9.24315 145.237 8.98607 146.394 8.98607C150.622 8.98607 154.053 12.4251 154.053 16.6727V51.3117H138.741V20.526C138.741 18.4016 137.017 16.6727 134.909 16.6727C132.789 16.6727 131.078 18.4016 131.078 20.526V51.3117H115.759V16.6727H105.294ZM201.356 16.6727L216.233 9.70355C217.225 9.24315 218.323 8.98607 219.474 8.98607C223.277 8.98607 226.43 11.766 227.03 15.4124L239.209 9.70355C240.2 9.24315 241.301 8.98607 242.461 8.98607C246.684 8.98607 250.118 12.4251 250.118 16.6727V51.3117H234.792V20.526C234.792 18.4016 233.082 16.6727 230.968 16.6727C228.847 16.6727 227.133 18.4016 227.133 20.526V51.3117H211.817V16.6727H201.355H201.356ZM183.04 15.6023C182.358 13.0374 179.734 11.5148 177.182 12.2042C174.633 12.8907 173.11 15.5293 173.795 18.0942L181.235 45.9692C181.923 48.537 184.542 50.0579 187.094 49.379C189.646 48.6843 191.163 46.0475 190.478 43.4831L183.04 15.6023Z" fill="white"/>
</g>
<defs>
<clipPath id="clip0_23_140">
<rect width="250.027" height="52" fill="white"/>
</clipPath>
</defs>
</svg>
