<svg width="215" height="52" viewBox="0 0 215 52" fill="none" xmlns="http://www.w3.org/2000/svg">
<g clip-path="url(#clip0_20_55)">
<path d="M148.826 0C134.27 0 125.834 10.9666 125.834 25.9969C125.834 41.0273 134.252 52 148.826 52C163.4 52 171.788 41.0334 171.788 26.003C171.788 10.9727 163.376 0.00607992 148.808 0.00607992M148.808 43.2633C139.553 43.2633 135.987 34.7337 135.987 26.0091C135.987 17.2846 139.553 8.7611 148.808 8.7611C158.063 8.7611 161.629 17.2907 161.629 26.0091C161.629 34.7276 158.057 43.2633 148.808 43.2633Z" fill="#D20101"/>
<path d="M0 1.46222H36.5166V10.2111H10.1587V21.0924H34.7396V29.622H10.1587V41.795H36.5166V50.5439H0V1.46222Z" fill="#D20101"/>
<path d="M40.8711 50.5439H51.0237V35.8182H60.1938C72.6389 35.8182 80.9903 29.6769 80.9903 18.6432C80.9903 7.60962 72.6693 1.46222 60.1938 1.46222H40.8711V50.5439ZM60.1938 27.0753H51.0298V10.1989H60.1938C66.5862 10.1989 70.8377 12.9954 70.8377 18.6371C70.8377 24.2789 66.5922 27.0692 60.1938 27.0692" fill="#D20101"/>
<path d="M186.07 1.46222H175.639V50.55H185.597V30.6639C185.597 25.2232 185.403 20.3979 185.221 16.127C186.398 18.564 189.964 25.9665 191.608 28.7386L204.568 50.5439H215V1.46222H205.041V20.8488C205.041 26.2833 205.241 31.6204 205.417 35.8791C204.241 33.4421 200.687 26.0396 199.019 23.2736L186.07 1.46222Z" fill="#D20101"/>
<path d="M92.5562 34.3072C92.5562 40.9055 98.0146 43.4461 103.831 43.4461C107.621 43.4461 113.783 42.3433 113.783 37.2743C113.783 31.925 106.257 30.9137 98.9972 28.9701C91.3857 26.9474 84.0533 24.0961 84.0533 14.9572C84.0533 4.81923 93.5994 -0.0426331 102.521 -0.0426331C112.831 -0.0426331 122.286 4.47195 122.286 15.926H112.122C111.776 9.95525 107.215 8.42602 102.03 8.42602C98.5726 8.42602 94.218 9.88214 94.218 14.0616C94.218 17.8756 96.7046 18.4666 109.071 21.6652C112.667 22.5669 123.948 24.7541 123.948 36.0009C123.948 45.1032 116.828 51.9025 103.412 51.9025C92.4956 51.9025 82.2702 46.4923 82.4036 34.2707L92.5562 34.3072Z" fill="#D20101"/>
</g>
<defs>
<clipPath id="clip0_20_55">
<rect width="215" height="52" fill="white"/>
</clipPath>
</defs>
</svg>
