<svg width="54" height="52" viewBox="0 0 54 52" fill="none" xmlns="http://www.w3.org/2000/svg">
<g clip-path="url(#clip0_20_157)">
<path d="M27.4184 52C27.155 52 26.8918 51.9959 26.6291 51.9876L32.0569 37.3849H39.53C40.2201 37.352 40.8867 37.1287 41.4527 36.7407C42.0188 36.3529 42.4612 35.8162 42.7289 35.1926L48.6179 19.3586C48.8807 18.8309 48.9945 18.2439 48.9474 17.6587C48.9004 17.0734 48.6942 16.5111 48.3501 16.0302C48.0062 15.5493 47.537 15.1672 46.9913 14.9237C46.4457 14.6802 45.8433 14.5841 45.2468 14.6452H34.8798L26.185 38.0349L21.2564 51.2949C15.5334 49.9568 10.4262 46.7968 6.73586 42.3107C3.04552 37.8246 0.980899 32.2661 0.865916 26.5074C0.750934 20.7487 2.59209 15.1156 6.10054 10.4917C9.60899 5.86783 14.5862 2.51489 20.2514 0.95888L15.1603 14.6443L6.70135 37.3849H12.3322L19.5236 18.0617H23.7542L16.5627 37.3849H22.1935L28.8952 19.3575C29.1583 18.83 29.2724 18.2432 29.2255 17.6581C29.1787 17.0728 28.9727 16.5105 28.6289 16.0295C28.2851 15.5485 27.8161 15.1665 27.2705 14.9228C26.7249 14.6793 26.1226 14.5831 25.5263 14.6443H20.7922L26.2254 0.02704C26.6206 0.00936003 27.0179 0 27.4184 0C34.4627 0 41.2184 2.73928 46.1995 7.61522C51.1805 12.4911 53.9788 19.1043 53.9788 26.0001C53.9788 32.8957 51.1805 39.5089 46.1995 44.3848C41.2184 49.2608 34.4627 52 27.4184 52ZM43.4896 18.0482H39.2601L33.3372 33.9602H37.5666L43.4896 18.0482Z" fill="white"/>
</g>
<defs>
<clipPath id="clip0_20_157">
<rect width="53" height="52" fill="white" transform="translate(0.86084)"/>
</clipPath>
</defs>
</svg>
