<svg width="53" height="52" viewBox="0 0 53 52" fill="none" xmlns="http://www.w3.org/2000/svg">
<g clip-path="url(#clip0_34_208)">
<path d="M26.4184 52C26.155 52 25.8918 51.9959 25.6291 51.9876L31.0569 37.3849H38.53C39.2201 37.352 39.8867 37.1287 40.4527 36.7407C41.0188 36.3529 41.4612 35.8162 41.7289 35.1926L47.6179 19.3586C47.8807 18.8309 47.9945 18.2439 47.9474 17.6587C47.9004 17.0734 47.6942 16.5111 47.3501 16.0302C47.0062 15.5493 46.537 15.1672 45.9913 14.9237C45.4457 14.6802 44.8433 14.5841 44.2468 14.6452H33.8798L25.185 38.0349L20.2564 51.2948C14.5334 49.9568 9.42621 46.7968 5.73586 42.3107C2.04552 37.8246 -0.0191009 32.2661 -0.134084 26.5074C-0.249066 20.7487 1.59209 15.1156 5.10054 10.4917C8.60899 5.86783 13.5862 2.51489 19.2514 0.95888L14.1603 14.6443L5.70135 37.3849H11.3322L18.5236 18.0617H22.7542L15.5627 37.3849H21.1935L27.8952 19.3575C28.1583 18.83 28.2724 18.2432 28.2255 17.658C28.1787 17.0728 27.9727 16.5105 27.6289 16.0295C27.2851 15.5485 26.8161 15.1664 26.2705 14.9228C25.7249 14.6793 25.1226 14.5831 24.5263 14.6443H19.7922L25.2254 0.02704C25.6206 0.00936003 26.0179 0 26.4184 0C33.4627 0 40.2184 2.73928 45.1995 7.61522C50.1805 12.4911 52.9788 19.1043 52.9788 26.0001C52.9788 32.8956 50.1805 39.5089 45.1995 44.3848C40.2184 49.2607 33.4627 52 26.4184 52ZM42.4896 18.0482H38.2601L32.3372 33.9602H36.5666L42.4896 18.0482Z" fill="#D20101"/>
</g>
<defs>
<clipPath id="clip0_34_208">
<rect width="53" height="52" fill="white"/>
</clipPath>
</defs>
</svg>
